<?xml version="1.0" standalone="no"?>
<!DOCTYPE svg PUBLIC "-//W3C//DTD SVG 20010904//EN"
  "http://www.w3.org/TR/2001/REC-SVG-20010904/DTD/svg10.dtd">
<svg width="45" height="18">
  <circle cx="0" cy="0" r="1" fill="rgba(255,255,255,0)"/>
  <circle cx="1" cy="0" r="1" fill="rgba(255,255,255,0)"/>
  <circle cx="2" cy="0" r="1" fill="rgba(255,255,255,0)"/>
  <circle cx="3" cy="0" r="1" fill="rgba(255,255,255,0)"/>
  <circle cx="4" cy="0" r="1" fill="rgba(255,255,255,0)"/>
  <circle cx="5" cy="0" r="1" fill="rgba(255,255,255,0)"/>
  <circle cx="6" cy="0" r="1" fill="rgba(255,255,255,0)"/>
  <circle cx="7" cy="0" r="1" fill="rgba(255,255,255,0)"/>
  <circle cx="8" cy="0" r="1" fill="rgba(255,255,255,0)"/>
  <circle cx="9" cy="0" r="1" fill="rgba(255,255,255,0)"/>
  <circle cx="10" cy="0" r="1" fill="rgba(255,255,255,0)"/>
  <circle cx="11" cy="0" r="1" fill="rgba(255,255,255,0)"/>
  <circle cx="12" cy="0" r="1" fill="rgba(255,255,255,0)"/>
  <circle cx="13" cy="0" r="1" fill="rgba(255,255,255,0)"/>
  <circle cx="14" cy="0" r="1" fill="rgba(255,255,255,0)"/>
  <circle cx="15" cy="0" r="1" fill="rgba(255,255,255,0)"/>
  <circle cx="16" cy="0" r="1" fill="rgba(255,255,255,0)"/>
  <circle cx="17" cy="0" r="1" fill="rgba(255,255,255,0)"/>
  <circle cx="18" cy="0" r="1" fill="rgba(255,255,255,0)"/>
  <circle cx="19" cy="0" r="1" fill="rgba(255,255,255,0)"/>
  <circle cx="20" cy="0" r="1" fill="rgba(255,255,255,0)"/>
  <circle cx="21" cy="0" r="1" fill="rgba(255,255,255,0)"/>
  <circle cx="22" cy="0" r="1" fill="rgba(255,255,255,0)"/>
  <circle cx="23" cy="0" r="1" fill="rgba(255,255,255,0)"/>
  <circle cx="24" cy="0" r="1" fill="rgba(255,255,255,0)"/>
  <circle cx="25" cy="0" r="1" fill="rgba(255,255,255,0)"/>
  <circle cx="26" cy="0" r="1" fill="rgba(255,255,255,0)"/>
  <circle cx="27" cy="0" r="1" fill="rgba(255,255,255,0)"/>
  <circle cx="28" cy="0" r="1" fill="rgba(255,255,255,0)"/>
  <circle cx="29" cy="0" r="1" fill="rgba(0,0,0,0.2)"/>
  <circle cx="30" cy="0" r="1" fill="rgba(255,255,255,0)"/>
  <circle cx="31" cy="0" r="1" fill="rgba(255,255,255,0)"/>
  <circle cx="32" cy="0" r="1" fill="rgba(255,255,255,0)"/>
  <circle cx="33" cy="0" r="1" fill="rgba(255,255,255,0)"/>
  <circle cx="34" cy="0" r="1" fill="rgba(255,255,255,0)"/>
  <circle cx="35" cy="0" r="1" fill="rgba(255,255,255,0)"/>
  <circle cx="36" cy="0" r="1" fill="rgba(255,255,255,0)"/>
  <circle cx="37" cy="0" r="1" fill="rgba(255,255,255,0)"/>
  <circle cx="38" cy="0" r="1" fill="rgba(255,255,255,0)"/>
  <circle cx="39" cy="0" r="1" fill="rgba(255,255,255,0)"/>
  <circle cx="40" cy="0" r="1" fill="rgba(255,255,255,0)"/>
  <circle cx="41" cy="0" r="1" fill="rgba(0,0,0,0.2)"/>
  <circle cx="42" cy="0" r="1" fill="rgba(255,255,255,0)"/>
  <circle cx="43" cy="0" r="1" fill="rgba(255,255,255,0)"/>
  <circle cx="44" cy="0" r="1" fill="rgba(255,255,255,0)"/>
  <circle cx="0" cy="1" r="1" fill="rgba(255,255,255,0)"/>
  <circle cx="1" cy="1" r="1" fill="rgba(255,255,255,0)"/>
  <circle cx="2" cy="1" r="1" fill="rgba(255,255,255,0)"/>
  <circle cx="3" cy="1" r="1" fill="rgba(255,255,255,0)"/>
  <circle cx="4" cy="1" r="1" fill="rgba(255,255,255,0)"/>
  <circle cx="5" cy="1" r="1" fill="rgba(255,255,255,0)"/>
  <circle cx="6" cy="1" r="1" fill="rgba(255,255,255,0)"/>
  <circle cx="7" cy="1" r="1" fill="rgba(255,255,255,0)"/>
  <circle cx="8" cy="1" r="1" fill="rgba(255,255,255,0)"/>
  <circle cx="9" cy="1" r="1" fill="rgba(255,255,255,0)"/>
  <circle cx="10" cy="1" r="1" fill="rgba(255,255,255,0)"/>
  <circle cx="11" cy="1" r="1" fill="rgba(255,255,255,0)"/>
  <circle cx="12" cy="1" r="1" fill="rgba(255,255,255,0)"/>
  <circle cx="13" cy="1" r="1" fill="rgba(255,255,255,0)"/>
  <circle cx="14" cy="1" r="1" fill="rgba(255,255,255,0)"/>
  <circle cx="15" cy="1" r="1" fill="rgba(255,255,255,0)"/>
  <circle cx="16" cy="1" r="1" fill="rgba(255,255,255,0)"/>
  <circle cx="17" cy="1" r="1" fill="rgba(255,255,255,0)"/>
  <circle cx="18" cy="1" r="1" fill="rgba(255,255,255,0)"/>
  <circle cx="19" cy="1" r="1" fill="rgba(255,255,255,0)"/>
  <circle cx="20" cy="1" r="1" fill="rgba(255,255,255,0)"/>
  <circle cx="21" cy="1" r="1" fill="rgba(255,255,255,0)"/>
  <circle cx="22" cy="1" r="1" fill="rgba(255,255,255,0)"/>
  <circle cx="23" cy="1" r="1" fill="rgba(255,255,255,0)"/>
  <circle cx="24" cy="1" r="1" fill="rgba(255,255,255,0)"/>
  <circle cx="25" cy="1" r="1" fill="rgba(255,255,255,0)"/>
  <circle cx="26" cy="1" r="1" fill="rgba(255,255,255,0)"/>
  <circle cx="27" cy="1" r="1" fill="rgba(255,255,255,0)"/>
  <circle cx="28" cy="1" r="1" fill="rgba(0,0,0,0.6)"/>
  <circle cx="29" cy="1" r="1" fill="rgba(0,0,0,0.0666667)"/>
  <circle cx="30" cy="1" r="1" fill="rgba(255,255,255,0)"/>
  <circle cx="31" cy="1" r="1" fill="rgba(255,255,255,0)"/>
  <circle cx="32" cy="1" r="1" fill="rgba(255,255,255,0)"/>
  <circle cx="33" cy="1" r="1" fill="rgba(255,255,255,0)"/>
  <circle cx="34" cy="1" r="1" fill="rgba(255,255,255,0)"/>
  <circle cx="35" cy="1" r="1" fill="rgba(255,255,255,0)"/>
  <circle cx="36" cy="1" r="1" fill="rgba(255,255,255,0)"/>
  <circle cx="37" cy="1" r="1" fill="rgba(255,255,255,0)"/>
  <circle cx="38" cy="1" r="1" fill="rgba(255,255,255,0)"/>
  <circle cx="39" cy="1" r="1" fill="rgba(255,255,255,0)"/>
  <circle cx="40" cy="1" r="1" fill="rgba(255,255,255,0)"/>
  <circle cx="41" cy="1" r="1" fill="rgba(0,0,0,0.333333)"/>
  <circle cx="42" cy="1" r="1" fill="rgba(0,0,0,0.2)"/>
  <circle cx="43" cy="1" r="1" fill="rgba(255,255,255,0)"/>
  <circle cx="44" cy="1" r="1" fill="rgba(255,255,255,0)"/>
  <circle cx="0" cy="2" r="1" fill="rgba(255,255,255,0)"/>
  <circle cx="1" cy="2" r="1" fill="rgba(255,255,255,0)"/>
  <circle cx="2" cy="2" r="1" fill="rgba(0,0,0,0.133333)"/>
  <circle cx="3" cy="2" r="1" fill="rgba(255,255,255,0)"/>
  <circle cx="4" cy="2" r="1" fill="rgba(255,255,255,0)"/>
  <circle cx="5" cy="2" r="1" fill="rgba(255,255,255,0)"/>
  <circle cx="6" cy="2" r="1" fill="rgba(255,255,255,0)"/>
  <circle cx="7" cy="2" r="1" fill="rgba(255,255,255,0)"/>
  <circle cx="8" cy="2" r="1" fill="rgba(255,255,255,0)"/>
  <circle cx="9" cy="2" r="1" fill="rgba(255,255,255,0)"/>
  <circle cx="10" cy="2" r="1" fill="rgba(255,255,255,0)"/>
  <circle cx="11" cy="2" r="1" fill="rgba(255,255,255,0)"/>
  <circle cx="12" cy="2" r="1" fill="rgba(255,255,255,0)"/>
  <circle cx="13" cy="2" r="1" fill="rgba(255,255,255,0)"/>
  <circle cx="14" cy="2" r="1" fill="rgba(255,255,255,0)"/>
  <circle cx="15" cy="2" r="1" fill="rgba(255,255,255,0)"/>
  <circle cx="16" cy="2" r="1" fill="rgba(255,255,255,0)"/>
  <circle cx="17" cy="2" r="1" fill="rgba(255,255,255,0)"/>
  <circle cx="18" cy="2" r="1" fill="rgba(255,255,255,0)"/>
  <circle cx="19" cy="2" r="1" fill="rgba(255,255,255,0)"/>
  <circle cx="20" cy="2" r="1" fill="rgba(255,255,255,0)"/>
  <circle cx="21" cy="2" r="1" fill="rgba(255,255,255,0)"/>
  <circle cx="22" cy="2" r="1" fill="rgba(255,255,255,0)"/>
  <circle cx="23" cy="2" r="1" fill="rgba(255,255,255,0)"/>
  <circle cx="24" cy="2" r="1" fill="rgba(255,255,255,0)"/>
  <circle cx="25" cy="2" r="1" fill="rgba(255,255,255,0)"/>
  <circle cx="26" cy="2" r="1" fill="rgba(255,255,255,0)"/>
  <circle cx="27" cy="2" r="1" fill="rgba(0,0,0,0.533333)"/>
  <circle cx="28" cy="2" r="1" fill="rgba(0,0,0,0.2)"/>
  <circle cx="29" cy="2" r="1" fill="rgba(255,255,255,0)"/>
  <circle cx="30" cy="2" r="1" fill="rgba(255,255,255,0)"/>
  <circle cx="31" cy="2" r="1" fill="rgba(255,255,255,0)"/>
  <circle cx="32" cy="2" r="1" fill="rgba(255,255,255,0)"/>
  <circle cx="33" cy="2" r="1" fill="rgba(255,255,255,0)"/>
  <circle cx="34" cy="2" r="1" fill="rgba(255,255,255,0)"/>
  <circle cx="35" cy="2" r="1" fill="rgba(255,255,255,0)"/>
  <circle cx="36" cy="2" r="1" fill="rgba(255,255,255,0)"/>
  <circle cx="37" cy="2" r="1" fill="rgba(255,255,255,0)"/>
  <circle cx="38" cy="2" r="1" fill="rgba(255,255,255,0)"/>
  <circle cx="39" cy="2" r="1" fill="rgba(255,255,255,0)"/>
  <circle cx="40" cy="2" r="1" fill="rgba(255,255,255,0)"/>
  <circle cx="41" cy="2" r="1" fill="rgba(255,255,255,0)"/>
  <circle cx="42" cy="2" r="1" fill="rgba(0,0,0,0.6)"/>
  <circle cx="43" cy="2" r="1" fill="rgba(0,0,0,0.0666667)"/>
  <circle cx="44" cy="2" r="1" fill="rgba(255,255,255,0)"/>
  <circle cx="0" cy="3" r="1" fill="rgba(255,255,255,0)"/>
  <circle cx="1" cy="3" r="1" fill="rgba(255,255,255,0)"/>
  <circle cx="2" cy="3" r="1" fill="rgba(0,0,0,0.533333)"/>
  <circle cx="3" cy="3" r="1" fill="rgba(255,255,255,0)"/>
  <circle cx="4" cy="3" r="1" fill="rgba(255,255,255,0)"/>
  <circle cx="5" cy="3" r="1" fill="rgba(255,255,255,0)"/>
  <circle cx="6" cy="3" r="1" fill="rgba(255,255,255,0)"/>
  <circle cx="7" cy="3" r="1" fill="rgba(255,255,255,0)"/>
  <circle cx="8" cy="3" r="1" fill="rgba(255,255,255,0)"/>
  <circle cx="9" cy="3" r="1" fill="rgba(255,255,255,0)"/>
  <circle cx="10" cy="3" r="1" fill="rgba(255,255,255,0)"/>
  <circle cx="11" cy="3" r="1" fill="rgba(255,255,255,0)"/>
  <circle cx="12" cy="3" r="1" fill="rgba(255,255,255,0)"/>
  <circle cx="13" cy="3" r="1" fill="rgba(255,255,255,0)"/>
  <circle cx="14" cy="3" r="1" fill="rgba(255,255,255,0)"/>
  <circle cx="15" cy="3" r="1" fill="rgba(255,255,255,0)"/>
  <circle cx="16" cy="3" r="1" fill="rgba(255,255,255,0)"/>
  <circle cx="17" cy="3" r="1" fill="rgba(255,255,255,0)"/>
  <circle cx="18" cy="3" r="1" fill="rgba(255,255,255,0)"/>
  <circle cx="19" cy="3" r="1" fill="rgba(255,255,255,0)"/>
  <circle cx="20" cy="3" r="1" fill="rgba(255,255,255,0)"/>
  <circle cx="21" cy="3" r="1" fill="rgba(255,255,255,0)"/>
  <circle cx="22" cy="3" r="1" fill="rgba(255,255,255,0)"/>
  <circle cx="23" cy="3" r="1" fill="rgba(255,255,255,0)"/>
  <circle cx="24" cy="3" r="1" fill="rgba(255,255,255,0)"/>
  <circle cx="25" cy="3" r="1" fill="rgba(255,255,255,0)"/>
  <circle cx="26" cy="3" r="1" fill="rgba(0,0,0,0.133333)"/>
  <circle cx="27" cy="3" r="1" fill="rgba(0,0,0,0.6)"/>
  <circle cx="28" cy="3" r="1" fill="rgba(255,255,255,0)"/>
  <circle cx="29" cy="3" r="1" fill="rgba(255,255,255,0)"/>
  <circle cx="30" cy="3" r="1" fill="rgba(255,255,255,0)"/>
  <circle cx="31" cy="3" r="1" fill="rgba(255,255,255,0)"/>
  <circle cx="32" cy="3" r="1" fill="rgba(255,255,255,0)"/>
  <circle cx="33" cy="3" r="1" fill="rgba(255,255,255,0)"/>
  <circle cx="34" cy="3" r="1" fill="rgba(255,255,255,0)"/>
  <circle cx="35" cy="3" r="1" fill="rgba(255,255,255,0)"/>
  <circle cx="36" cy="3" r="1" fill="rgba(255,255,255,0)"/>
  <circle cx="37" cy="3" r="1" fill="rgba(255,255,255,0)"/>
  <circle cx="38" cy="3" r="1" fill="rgba(255,255,255,0)"/>
  <circle cx="39" cy="3" r="1" fill="rgba(255,255,255,0)"/>
  <circle cx="40" cy="3" r="1" fill="rgba(255,255,255,0)"/>
  <circle cx="41" cy="3" r="1" fill="rgba(255,255,255,0)"/>
  <circle cx="42" cy="3" r="1" fill="rgba(0,0,0,0.133333)"/>
  <circle cx="43" cy="3" r="1" fill="rgba(0,0,0,0.6)"/>
  <circle cx="44" cy="3" r="1" fill="rgba(255,255,255,0)"/>
  <circle cx="0" cy="4" r="1" fill="rgba(255,255,255,0)"/>
  <circle cx="1" cy="4" r="1" fill="rgba(255,255,255,0)"/>
  <circle cx="2" cy="4" r="1" fill="rgba(0,0,0,0.866667)"/>
  <circle cx="3" cy="4" r="1" fill="rgba(255,255,255,0)"/>
  <circle cx="4" cy="4" r="1" fill="rgba(255,255,255,0)"/>
  <circle cx="5" cy="4" r="1" fill="rgba(255,255,255,0)"/>
  <circle cx="6" cy="4" r="1" fill="rgba(255,255,255,0)"/>
  <circle cx="7" cy="4" r="1" fill="rgba(255,255,255,0)"/>
  <circle cx="8" cy="4" r="1" fill="rgba(255,255,255,0)"/>
  <circle cx="9" cy="4" r="1" fill="rgba(255,255,255,0)"/>
  <circle cx="10" cy="4" r="1" fill="rgba(255,255,255,0)"/>
  <circle cx="11" cy="4" r="1" fill="rgba(255,255,255,0)"/>
  <circle cx="12" cy="4" r="1" fill="rgba(255,255,255,0)"/>
  <circle cx="13" cy="4" r="1" fill="rgba(255,255,255,0)"/>
  <circle cx="14" cy="4" r="1" fill="rgba(255,255,255,0)"/>
  <circle cx="15" cy="4" r="1" fill="rgba(255,255,255,0)"/>
  <circle cx="16" cy="4" r="1" fill="rgba(255,255,255,0)"/>
  <circle cx="17" cy="4" r="1" fill="rgba(255,255,255,0)"/>
  <circle cx="18" cy="4" r="1" fill="rgba(255,255,255,0)"/>
  <circle cx="19" cy="4" r="1" fill="rgba(255,255,255,0)"/>
  <circle cx="20" cy="4" r="1" fill="rgba(255,255,255,0)"/>
  <circle cx="21" cy="4" r="1" fill="rgba(255,255,255,0)"/>
  <circle cx="22" cy="4" r="1" fill="rgba(255,255,255,0)"/>
  <circle cx="23" cy="4" r="1" fill="rgba(255,255,255,0)"/>
  <circle cx="24" cy="4" r="1" fill="rgba(255,255,255,0)"/>
  <circle cx="25" cy="4" r="1" fill="rgba(255,255,255,0)"/>
  <circle cx="26" cy="4" r="1" fill="rgba(0,0,0,0.6)"/>
  <circle cx="27" cy="4" r="1" fill="rgba(0,0,0,0.2)"/>
  <circle cx="28" cy="4" r="1" fill="rgba(255,255,255,0)"/>
  <circle cx="29" cy="4" r="1" fill="rgba(255,255,255,0)"/>
  <circle cx="30" cy="4" r="1" fill="rgba(255,255,255,0)"/>
  <circle cx="31" cy="4" r="1" fill="rgba(255,255,255,0)"/>
  <circle cx="32" cy="4" r="1" fill="rgba(255,255,255,0)"/>
  <circle cx="33" cy="4" r="1" fill="rgba(255,255,255,0)"/>
  <circle cx="34" cy="4" r="1" fill="rgba(255,255,255,0)"/>
  <circle cx="35" cy="4" r="1" fill="rgba(255,255,255,0)"/>
  <circle cx="36" cy="4" r="1" fill="rgba(255,255,255,0)"/>
  <circle cx="37" cy="4" r="1" fill="rgba(255,255,255,0)"/>
  <circle cx="38" cy="4" r="1" fill="rgba(255,255,255,0)"/>
  <circle cx="39" cy="4" r="1" fill="rgba(255,255,255,0)"/>
  <circle cx="40" cy="4" r="1" fill="rgba(255,255,255,0)"/>
  <circle cx="41" cy="4" r="1" fill="rgba(255,255,255,0)"/>
  <circle cx="42" cy="4" r="1" fill="rgba(255,255,255,0)"/>
  <circle cx="43" cy="4" r="1" fill="rgba(0,0,0,0.8)"/>
  <circle cx="44" cy="4" r="1" fill="rgba(0,0,0,0.0666667)"/>
  <circle cx="0" cy="5" r="1" fill="rgba(255,255,255,0)"/>
  <circle cx="1" cy="5" r="1" fill="rgba(0,0,0,0.533333)"/>
  <circle cx="2" cy="5" r="1" fill="black"/>
  <circle cx="3" cy="5" r="1" fill="rgba(0,0,0,0.266667)"/>
  <circle cx="4" cy="5" r="1" fill="rgba(0,0,0,0.266667)"/>
  <circle cx="5" cy="5" r="1" fill="rgba(0,0,0,0.0666667)"/>
  <circle cx="6" cy="5" r="1" fill="rgba(255,255,255,0)"/>
  <circle cx="7" cy="5" r="1" fill="rgba(255,255,255,0)"/>
  <circle cx="8" cy="5" r="1" fill="rgba(0,0,0,0.2)"/>
  <circle cx="9" cy="5" r="1" fill="rgba(0,0,0,0.466667)"/>
  <circle cx="10" cy="5" r="1" fill="rgba(0,0,0,0.333333)"/>
  <circle cx="11" cy="5" r="1" fill="rgba(255,255,255,0)"/>
  <circle cx="12" cy="5" r="1" fill="rgba(255,255,255,0)"/>
  <circle cx="13" cy="5" r="1" fill="rgba(255,255,255,0)"/>
  <circle cx="14" cy="5" r="1" fill="rgba(255,255,255,0)"/>
  <circle cx="15" cy="5" r="1" fill="rgba(0,0,0,0.133333)"/>
  <circle cx="16" cy="5" r="1" fill="rgba(0,0,0,0.266667)"/>
  <circle cx="17" cy="5" r="1" fill="rgba(0,0,0,0.266667)"/>
  <circle cx="18" cy="5" r="1" fill="rgba(255,255,255,0)"/>
  <circle cx="19" cy="5" r="1" fill="rgba(0,0,0,0.2)"/>
  <circle cx="20" cy="5" r="1" fill="rgba(0,0,0,0.266667)"/>
  <circle cx="21" cy="5" r="1" fill="rgba(0,0,0,0.133333)"/>
  <circle cx="22" cy="5" r="1" fill="rgba(255,255,255,0)"/>
  <circle cx="23" cy="5" r="1" fill="rgba(255,255,255,0)"/>
  <circle cx="24" cy="5" r="1" fill="rgba(255,255,255,0)"/>
  <circle cx="25" cy="5" r="1" fill="rgba(255,255,255,0)"/>
  <circle cx="26" cy="5" r="1" fill="rgba(0,0,0,0.933333)"/>
  <circle cx="27" cy="5" r="1" fill="rgba(255,255,255,0)"/>
  <circle cx="28" cy="5" r="1" fill="rgba(255,255,255,0)"/>
  <circle cx="29" cy="5" r="1" fill="rgba(255,255,255,0)"/>
  <circle cx="30" cy="5" r="1" fill="rgba(255,255,255,0)"/>
  <circle cx="31" cy="5" r="1" fill="rgba(255,255,255,0)"/>
  <circle cx="32" cy="5" r="1" fill="rgba(0,0,0,0.0666667)"/>
  <circle cx="33" cy="5" r="1" fill="rgba(0,0,0,0.266667)"/>
  <circle cx="34" cy="5" r="1" fill="rgba(0,0,0,0.133333)"/>
  <circle cx="35" cy="5" r="1" fill="rgba(255,255,255,0)"/>
  <circle cx="36" cy="5" r="1" fill="rgba(0,0,0,0.133333)"/>
  <circle cx="37" cy="5" r="1" fill="rgba(0,0,0,0.266667)"/>
  <circle cx="38" cy="5" r="1" fill="rgba(255,255,255,0)"/>
  <circle cx="39" cy="5" r="1" fill="rgba(255,255,255,0)"/>
  <circle cx="40" cy="5" r="1" fill="rgba(255,255,255,0)"/>
  <circle cx="41" cy="5" r="1" fill="rgba(255,255,255,0)"/>
  <circle cx="42" cy="5" r="1" fill="rgba(255,255,255,0)"/>
  <circle cx="43" cy="5" r="1" fill="rgba(0,0,0,0.533333)"/>
  <circle cx="44" cy="5" r="1" fill="rgba(0,0,0,0.4)"/>
  <circle cx="0" cy="6" r="1" fill="rgba(0,0,0,0.2)"/>
  <circle cx="1" cy="6" r="1" fill="rgba(0,0,0,0.466667)"/>
  <circle cx="2" cy="6" r="1" fill="black"/>
  <circle cx="3" cy="6" r="1" fill="rgba(0,0,0,0.266667)"/>
  <circle cx="4" cy="6" r="1" fill="rgba(0,0,0,0.266667)"/>
  <circle cx="5" cy="6" r="1" fill="rgba(0,0,0,0.0666667)"/>
  <circle cx="6" cy="6" r="1" fill="rgba(255,255,255,0)"/>
  <circle cx="7" cy="6" r="1" fill="rgba(0,0,0,0.466667)"/>
  <circle cx="8" cy="6" r="1" fill="rgba(0,0,0,0.4)"/>
  <circle cx="9" cy="6" r="1" fill="rgba(255,255,255,0)"/>
  <circle cx="10" cy="6" r="1" fill="rgba(0,0,0,0.266667)"/>
  <circle cx="11" cy="6" r="1" fill="rgba(0,0,0,0.8)"/>
  <circle cx="12" cy="6" r="1" fill="rgba(0,0,0,0.0666667)"/>
  <circle cx="13" cy="6" r="1" fill="rgba(255,255,255,0)"/>
  <circle cx="14" cy="6" r="1" fill="rgba(255,255,255,0)"/>
  <circle cx="15" cy="6" r="1" fill="rgba(0,0,0,0.266667)"/>
  <circle cx="16" cy="6" r="1" fill="rgba(0,0,0,0.6)"/>
  <circle cx="17" cy="6" r="1" fill="black"/>
  <circle cx="18" cy="6" r="1" fill="rgba(0,0,0,0.333333)"/>
  <circle cx="19" cy="6" r="1" fill="rgba(0,0,0,0.2)"/>
  <circle cx="20" cy="6" r="1" fill="rgba(0,0,0,0.0666667)"/>
  <circle cx="21" cy="6" r="1" fill="rgba(0,0,0,0.866667)"/>
  <circle cx="22" cy="6" r="1" fill="rgba(0,0,0,0.2)"/>
  <circle cx="23" cy="6" r="1" fill="rgba(255,255,255,0)"/>
  <circle cx="24" cy="6" r="1" fill="rgba(255,255,255,0)"/>
  <circle cx="25" cy="6" r="1" fill="rgba(0,0,0,0.2)"/>
  <circle cx="26" cy="6" r="1" fill="rgba(0,0,0,0.733333)"/>
  <circle cx="27" cy="6" r="1" fill="rgba(255,255,255,0)"/>
  <circle cx="28" cy="6" r="1" fill="rgba(255,255,255,0)"/>
  <circle cx="29" cy="6" r="1" fill="rgba(255,255,255,0)"/>
  <circle cx="30" cy="6" r="1" fill="rgba(255,255,255,0)"/>
  <circle cx="31" cy="6" r="1" fill="rgba(0,0,0,0.133333)"/>
  <circle cx="32" cy="6" r="1" fill="rgba(0,0,0,0.4)"/>
  <circle cx="33" cy="6" r="1" fill="rgba(0,0,0,0.0666667)"/>
  <circle cx="34" cy="6" r="1" fill="rgba(0,0,0,0.666667)"/>
  <circle cx="35" cy="6" r="1" fill="rgba(0,0,0,0.533333)"/>
  <circle cx="36" cy="6" r="1" fill="rgba(0,0,0,0.266667)"/>
  <circle cx="37" cy="6" r="1" fill="rgba(0,0,0,0.466667)"/>
  <circle cx="38" cy="6" r="1" fill="rgba(0,0,0,0.666667)"/>
  <circle cx="39" cy="6" r="1" fill="rgba(255,255,255,0)"/>
  <circle cx="40" cy="6" r="1" fill="rgba(255,255,255,0)"/>
  <circle cx="41" cy="6" r="1" fill="rgba(255,255,255,0)"/>
  <circle cx="42" cy="6" r="1" fill="rgba(255,255,255,0)"/>
  <circle cx="43" cy="6" r="1" fill="rgba(0,0,0,0.333333)"/>
  <circle cx="44" cy="6" r="1" fill="rgba(0,0,0,0.533333)"/>
  <circle cx="0" cy="7" r="1" fill="rgba(255,255,255,0)"/>
  <circle cx="1" cy="7" r="1" fill="rgba(0,0,0,0.266667)"/>
  <circle cx="2" cy="7" r="1" fill="black"/>
  <circle cx="3" cy="7" r="1" fill="rgba(255,255,255,0)"/>
  <circle cx="4" cy="7" r="1" fill="rgba(255,255,255,0)"/>
  <circle cx="5" cy="7" r="1" fill="rgba(255,255,255,0)"/>
  <circle cx="6" cy="7" r="1" fill="rgba(255,255,255,0)"/>
  <circle cx="7" cy="7" r="1" fill="rgba(0,0,0,0.733333)"/>
  <circle cx="8" cy="7" r="1" fill="rgba(0,0,0,0.666667)"/>
  <circle cx="9" cy="7" r="1" fill="rgba(255,255,255,0)"/>
  <circle cx="10" cy="7" r="1" fill="rgba(255,255,255,0)"/>
  <circle cx="11" cy="7" r="1" fill="rgba(0,0,0,0.666667)"/>
  <circle cx="12" cy="7" r="1" fill="rgba(0,0,0,0.466667)"/>
  <circle cx="13" cy="7" r="1" fill="rgba(255,255,255,0)"/>
  <circle cx="14" cy="7" r="1" fill="rgba(255,255,255,0)"/>
  <circle cx="15" cy="7" r="1" fill="rgba(255,255,255,0)"/>
  <circle cx="16" cy="7" r="1" fill="rgba(0,0,0,0.266667)"/>
  <circle cx="17" cy="7" r="1" fill="black"/>
  <circle cx="18" cy="7" r="1" fill="rgba(0,0,0,0.266667)"/>
  <circle cx="19" cy="7" r="1" fill="rgba(255,255,255,0)"/>
  <circle cx="20" cy="7" r="1" fill="rgba(255,255,255,0)"/>
  <circle cx="21" cy="7" r="1" fill="rgba(0,0,0,0.533333)"/>
  <circle cx="22" cy="7" r="1" fill="rgba(0,0,0,0.533333)"/>
  <circle cx="23" cy="7" r="1" fill="rgba(255,255,255,0)"/>
  <circle cx="24" cy="7" r="1" fill="rgba(255,255,255,0)"/>
  <circle cx="25" cy="7" r="1" fill="rgba(0,0,0,0.266667)"/>
  <circle cx="26" cy="7" r="1" fill="rgba(0,0,0,0.733333)"/>
  <circle cx="27" cy="7" r="1" fill="rgba(255,255,255,0)"/>
  <circle cx="28" cy="7" r="1" fill="rgba(255,255,255,0)"/>
  <circle cx="29" cy="7" r="1" fill="rgba(255,255,255,0)"/>
  <circle cx="30" cy="7" r="1" fill="rgba(255,255,255,0)"/>
  <circle cx="31" cy="7" r="1" fill="rgba(0,0,0,0.533333)"/>
  <circle cx="32" cy="7" r="1" fill="rgba(255,255,255,0)"/>
  <circle cx="33" cy="7" r="1" fill="rgba(255,255,255,0)"/>
  <circle cx="34" cy="7" r="1" fill="rgba(0,0,0,0.533333)"/>
  <circle cx="35" cy="7" r="1" fill="rgba(0,0,0,0.666667)"/>
  <circle cx="36" cy="7" r="1" fill="rgba(255,255,255,0)"/>
  <circle cx="37" cy="7" r="1" fill="rgba(0,0,0,0.533333)"/>
  <circle cx="38" cy="7" r="1" fill="rgba(0,0,0,0.4)"/>
  <circle cx="39" cy="7" r="1" fill="rgba(255,255,255,0)"/>
  <circle cx="40" cy="7" r="1" fill="rgba(255,255,255,0)"/>
  <circle cx="41" cy="7" r="1" fill="rgba(255,255,255,0)"/>
  <circle cx="42" cy="7" r="1" fill="rgba(255,255,255,0)"/>
  <circle cx="43" cy="7" r="1" fill="rgba(0,0,0,0.266667)"/>
  <circle cx="44" cy="7" r="1" fill="rgba(0,0,0,0.733333)"/>
  <circle cx="0" cy="8" r="1" fill="rgba(255,255,255,0)"/>
  <circle cx="1" cy="8" r="1" fill="rgba(0,0,0,0.266667)"/>
  <circle cx="2" cy="8" r="1" fill="black"/>
  <circle cx="3" cy="8" r="1" fill="rgba(255,255,255,0)"/>
  <circle cx="4" cy="8" r="1" fill="rgba(255,255,255,0)"/>
  <circle cx="5" cy="8" r="1" fill="rgba(255,255,255,0)"/>
  <circle cx="6" cy="8" r="1" fill="rgba(255,255,255,0)"/>
  <circle cx="7" cy="8" r="1" fill="rgba(0,0,0,0.133333)"/>
  <circle cx="8" cy="8" r="1" fill="rgba(0,0,0,0.0666667)"/>
  <circle cx="9" cy="8" r="1" fill="rgba(0,0,0,0.133333)"/>
  <circle cx="10" cy="8" r="1" fill="rgba(0,0,0,0.266667)"/>
  <circle cx="11" cy="8" r="1" fill="rgba(0,0,0,0.6)"/>
  <circle cx="12" cy="8" r="1" fill="rgba(0,0,0,0.533333)"/>
  <circle cx="13" cy="8" r="1" fill="rgba(255,255,255,0)"/>
  <circle cx="14" cy="8" r="1" fill="rgba(255,255,255,0)"/>
  <circle cx="15" cy="8" r="1" fill="rgba(255,255,255,0)"/>
  <circle cx="16" cy="8" r="1" fill="rgba(0,0,0,0.266667)"/>
  <circle cx="17" cy="8" r="1" fill="black"/>
  <circle cx="18" cy="8" r="1" fill="rgba(255,255,255,0)"/>
  <circle cx="19" cy="8" r="1" fill="rgba(255,255,255,0)"/>
  <circle cx="20" cy="8" r="1" fill="rgba(255,255,255,0)"/>
  <circle cx="21" cy="8" r="1" fill="rgba(0,0,0,0.533333)"/>
  <circle cx="22" cy="8" r="1" fill="rgba(0,0,0,0.533333)"/>
  <circle cx="23" cy="8" r="1" fill="rgba(255,255,255,0)"/>
  <circle cx="24" cy="8" r="1" fill="rgba(255,255,255,0)"/>
  <circle cx="25" cy="8" r="1" fill="rgba(0,0,0,0.266667)"/>
  <circle cx="26" cy="8" r="1" fill="rgba(0,0,0,0.533333)"/>
  <circle cx="27" cy="8" r="1" fill="rgba(255,255,255,0)"/>
  <circle cx="28" cy="8" r="1" fill="rgba(255,255,255,0)"/>
  <circle cx="29" cy="8" r="1" fill="rgba(255,255,255,0)"/>
  <circle cx="30" cy="8" r="1" fill="rgba(255,255,255,0)"/>
  <circle cx="31" cy="8" r="1" fill="rgba(0,0,0,0.2)"/>
  <circle cx="32" cy="8" r="1" fill="rgba(255,255,255,0)"/>
  <circle cx="33" cy="8" r="1" fill="rgba(255,255,255,0)"/>
  <circle cx="34" cy="8" r="1" fill="rgba(0,0,0,0.666667)"/>
  <circle cx="35" cy="8" r="1" fill="rgba(0,0,0,0.466667)"/>
  <circle cx="36" cy="8" r="1" fill="rgba(255,255,255,0)"/>
  <circle cx="37" cy="8" r="1" fill="rgba(255,255,255,0)"/>
  <circle cx="38" cy="8" r="1" fill="rgba(255,255,255,0)"/>
  <circle cx="39" cy="8" r="1" fill="rgba(255,255,255,0)"/>
  <circle cx="40" cy="8" r="1" fill="rgba(255,255,255,0)"/>
  <circle cx="41" cy="8" r="1" fill="rgba(255,255,255,0)"/>
  <circle cx="42" cy="8" r="1" fill="rgba(255,255,255,0)"/>
  <circle cx="43" cy="8" r="1" fill="rgba(0,0,0,0.266667)"/>
  <circle cx="44" cy="8" r="1" fill="rgba(0,0,0,0.733333)"/>
  <circle cx="0" cy="9" r="1" fill="rgba(255,255,255,0)"/>
  <circle cx="1" cy="9" r="1" fill="rgba(0,0,0,0.266667)"/>
  <circle cx="2" cy="9" r="1" fill="black"/>
  <circle cx="3" cy="9" r="1" fill="rgba(255,255,255,0)"/>
  <circle cx="4" cy="9" r="1" fill="rgba(255,255,255,0)"/>
  <circle cx="5" cy="9" r="1" fill="rgba(255,255,255,0)"/>
  <circle cx="6" cy="9" r="1" fill="rgba(255,255,255,0)"/>
  <circle cx="7" cy="9" r="1" fill="rgba(0,0,0,0.2)"/>
  <circle cx="8" cy="9" r="1" fill="rgba(0,0,0,0.666667)"/>
  <circle cx="9" cy="9" r="1" fill="rgba(0,0,0,0.4)"/>
  <circle cx="10" cy="9" r="1" fill="rgba(0,0,0,0.133333)"/>
  <circle cx="11" cy="9" r="1" fill="rgba(0,0,0,0.533333)"/>
  <circle cx="12" cy="9" r="1" fill="rgba(0,0,0,0.533333)"/>
  <circle cx="13" cy="9" r="1" fill="rgba(255,255,255,0)"/>
  <circle cx="14" cy="9" r="1" fill="rgba(255,255,255,0)"/>
  <circle cx="15" cy="9" r="1" fill="rgba(255,255,255,0)"/>
  <circle cx="16" cy="9" r="1" fill="rgba(0,0,0,0.266667)"/>
  <circle cx="17" cy="9" r="1" fill="black"/>
  <circle cx="18" cy="9" r="1" fill="rgba(255,255,255,0)"/>
  <circle cx="19" cy="9" r="1" fill="rgba(255,255,255,0)"/>
  <circle cx="20" cy="9" r="1" fill="rgba(255,255,255,0)"/>
  <circle cx="21" cy="9" r="1" fill="rgba(0,0,0,0.533333)"/>
  <circle cx="22" cy="9" r="1" fill="rgba(0,0,0,0.533333)"/>
  <circle cx="23" cy="9" r="1" fill="rgba(255,255,255,0)"/>
  <circle cx="24" cy="9" r="1" fill="rgba(255,255,255,0)"/>
  <circle cx="25" cy="9" r="1" fill="rgba(0,0,0,0.266667)"/>
  <circle cx="26" cy="9" r="1" fill="rgba(0,0,0,0.6)"/>
  <circle cx="27" cy="9" r="1" fill="rgba(255,255,255,0)"/>
  <circle cx="28" cy="9" r="1" fill="rgba(255,255,255,0)"/>
  <circle cx="29" cy="9" r="1" fill="rgba(255,255,255,0)"/>
  <circle cx="30" cy="9" r="1" fill="rgba(255,255,255,0)"/>
  <circle cx="31" cy="9" r="1" fill="rgba(255,255,255,0)"/>
  <circle cx="32" cy="9" r="1" fill="rgba(255,255,255,0)"/>
  <circle cx="33" cy="9" r="1" fill="rgba(255,255,255,0)"/>
  <circle cx="34" cy="9" r="1" fill="rgba(0,0,0,0.933333)"/>
  <circle cx="35" cy="9" r="1" fill="rgba(0,0,0,0.2)"/>
  <circle cx="36" cy="9" r="1" fill="rgba(255,255,255,0)"/>
  <circle cx="37" cy="9" r="1" fill="rgba(255,255,255,0)"/>
  <circle cx="38" cy="9" r="1" fill="rgba(255,255,255,0)"/>
  <circle cx="39" cy="9" r="1" fill="rgba(255,255,255,0)"/>
  <circle cx="40" cy="9" r="1" fill="rgba(255,255,255,0)"/>
  <circle cx="41" cy="9" r="1" fill="rgba(255,255,255,0)"/>
  <circle cx="42" cy="9" r="1" fill="rgba(255,255,255,0)"/>
  <circle cx="43" cy="9" r="1" fill="rgba(0,0,0,0.266667)"/>
  <circle cx="44" cy="9" r="1" fill="rgba(0,0,0,0.733333)"/>
  <circle cx="0" cy="10" r="1" fill="rgba(255,255,255,0)"/>
  <circle cx="1" cy="10" r="1" fill="rgba(0,0,0,0.266667)"/>
  <circle cx="2" cy="10" r="1" fill="black"/>
  <circle cx="3" cy="10" r="1" fill="rgba(255,255,255,0)"/>
  <circle cx="4" cy="10" r="1" fill="rgba(255,255,255,0)"/>
  <circle cx="5" cy="10" r="1" fill="rgba(0,0,0,0.533333)"/>
  <circle cx="6" cy="10" r="1" fill="rgba(0,0,0,0.0666667)"/>
  <circle cx="7" cy="10" r="1" fill="rgba(0,0,0,0.933333)"/>
  <circle cx="8" cy="10" r="1" fill="rgba(0,0,0,0.266667)"/>
  <circle cx="9" cy="10" r="1" fill="rgba(255,255,255,0)"/>
  <circle cx="10" cy="10" r="1" fill="rgba(255,255,255,0)"/>
  <circle cx="11" cy="10" r="1" fill="rgba(0,0,0,0.533333)"/>
  <circle cx="12" cy="10" r="1" fill="rgba(0,0,0,0.533333)"/>
  <circle cx="13" cy="10" r="1" fill="rgba(0,0,0,0.133333)"/>
  <circle cx="14" cy="10" r="1" fill="rgba(0,0,0,0.133333)"/>
  <circle cx="15" cy="10" r="1" fill="rgba(255,255,255,0)"/>
  <circle cx="16" cy="10" r="1" fill="rgba(0,0,0,0.266667)"/>
  <circle cx="17" cy="10" r="1" fill="black"/>
  <circle cx="18" cy="10" r="1" fill="rgba(255,255,255,0)"/>
  <circle cx="19" cy="10" r="1" fill="rgba(255,255,255,0)"/>
  <circle cx="20" cy="10" r="1" fill="rgba(255,255,255,0)"/>
  <circle cx="21" cy="10" r="1" fill="rgba(0,0,0,0.533333)"/>
  <circle cx="22" cy="10" r="1" fill="rgba(0,0,0,0.533333)"/>
  <circle cx="23" cy="10" r="1" fill="rgba(255,255,255,0)"/>
  <circle cx="24" cy="10" r="1" fill="rgba(255,255,255,0)"/>
  <circle cx="25" cy="10" r="1" fill="rgba(0,0,0,0.266667)"/>
  <circle cx="26" cy="10" r="1" fill="rgba(0,0,0,0.733333)"/>
  <circle cx="27" cy="10" r="1" fill="rgba(255,255,255,0)"/>
  <circle cx="28" cy="10" r="1" fill="rgba(255,255,255,0)"/>
  <circle cx="29" cy="10" r="1" fill="rgba(255,255,255,0)"/>
  <circle cx="30" cy="10" r="1" fill="rgba(255,255,255,0)"/>
  <circle cx="31" cy="10" r="1" fill="rgba(255,255,255,0)"/>
  <circle cx="32" cy="10" r="1" fill="rgba(255,255,255,0)"/>
  <circle cx="33" cy="10" r="1" fill="rgba(0,0,0,0.2)"/>
  <circle cx="34" cy="10" r="1" fill="rgba(0,0,0,0.933333)"/>
  <circle cx="35" cy="10" r="1" fill="rgba(255,255,255,0)"/>
  <circle cx="36" cy="10" r="1" fill="rgba(255,255,255,0)"/>
  <circle cx="37" cy="10" r="1" fill="rgba(0,0,0,0.133333)"/>
  <circle cx="38" cy="10" r="1" fill="rgba(0,0,0,0.133333)"/>
  <circle cx="39" cy="10" r="1" fill="rgba(255,255,255,0)"/>
  <circle cx="40" cy="10" r="1" fill="rgba(255,255,255,0)"/>
  <circle cx="41" cy="10" r="1" fill="rgba(255,255,255,0)"/>
  <circle cx="42" cy="10" r="1" fill="rgba(255,255,255,0)"/>
  <circle cx="43" cy="10" r="1" fill="rgba(0,0,0,0.266667)"/>
  <circle cx="44" cy="10" r="1" fill="rgba(0,0,0,0.733333)"/>
  <circle cx="0" cy="11" r="1" fill="rgba(255,255,255,0)"/>
  <circle cx="1" cy="11" r="1" fill="rgba(0,0,0,0.266667)"/>
  <circle cx="2" cy="11" r="1" fill="black"/>
  <circle cx="3" cy="11" r="1" fill="rgba(255,255,255,0)"/>
  <circle cx="4" cy="11" r="1" fill="rgba(255,255,255,0)"/>
  <circle cx="5" cy="11" r="1" fill="rgba(0,0,0,0.466667)"/>
  <circle cx="6" cy="11" r="1" fill="rgba(0,0,0,0.266667)"/>
  <circle cx="7" cy="11" r="1" fill="black"/>
  <circle cx="8" cy="11" r="1" fill="rgba(255,255,255,0)"/>
  <circle cx="9" cy="11" r="1" fill="rgba(255,255,255,0)"/>
  <circle cx="10" cy="11" r="1" fill="rgba(255,255,255,0)"/>
  <circle cx="11" cy="11" r="1" fill="rgba(0,0,0,0.8)"/>
  <circle cx="12" cy="11" r="1" fill="rgba(0,0,0,0.533333)"/>
  <circle cx="13" cy="11" r="1" fill="rgba(0,0,0,0.266667)"/>
  <circle cx="14" cy="11" r="1" fill="rgba(0,0,0,0.266667)"/>
  <circle cx="15" cy="11" r="1" fill="rgba(255,255,255,0)"/>
  <circle cx="16" cy="11" r="1" fill="rgba(0,0,0,0.266667)"/>
  <circle cx="17" cy="11" r="1" fill="black"/>
  <circle cx="18" cy="11" r="1" fill="rgba(255,255,255,0)"/>
  <circle cx="19" cy="11" r="1" fill="rgba(255,255,255,0)"/>
  <circle cx="20" cy="11" r="1" fill="rgba(255,255,255,0)"/>
  <circle cx="21" cy="11" r="1" fill="rgba(0,0,0,0.533333)"/>
  <circle cx="22" cy="11" r="1" fill="rgba(0,0,0,0.533333)"/>
  <circle cx="23" cy="11" r="1" fill="rgba(255,255,255,0)"/>
  <circle cx="24" cy="11" r="1" fill="rgba(255,255,255,0)"/>
  <circle cx="25" cy="11" r="1" fill="rgba(0,0,0,0.0666667)"/>
  <circle cx="26" cy="11" r="1" fill="rgba(0,0,0,0.8)"/>
  <circle cx="27" cy="11" r="1" fill="rgba(255,255,255,0)"/>
  <circle cx="28" cy="11" r="1" fill="rgba(255,255,255,0)"/>
  <circle cx="29" cy="11" r="1" fill="rgba(255,255,255,0)"/>
  <circle cx="30" cy="11" r="1" fill="rgba(0,0,0,0.333333)"/>
  <circle cx="31" cy="11" r="1" fill="rgba(0,0,0,0.733333)"/>
  <circle cx="32" cy="11" r="1" fill="rgba(255,255,255,0)"/>
  <circle cx="33" cy="11" r="1" fill="rgba(0,0,0,0.533333)"/>
  <circle cx="34" cy="11" r="1" fill="rgba(0,0,0,0.733333)"/>
  <circle cx="35" cy="11" r="1" fill="rgba(255,255,255,0)"/>
  <circle cx="36" cy="11" r="1" fill="rgba(255,255,255,0)"/>
  <circle cx="37" cy="11" r="1" fill="rgba(0,0,0,0.466667)"/>
  <circle cx="38" cy="11" r="1" fill="rgba(255,255,255,0)"/>
  <circle cx="39" cy="11" r="1" fill="rgba(255,255,255,0)"/>
  <circle cx="40" cy="11" r="1" fill="rgba(255,255,255,0)"/>
  <circle cx="41" cy="11" r="1" fill="rgba(255,255,255,0)"/>
  <circle cx="42" cy="11" r="1" fill="rgba(255,255,255,0)"/>
  <circle cx="43" cy="11" r="1" fill="rgba(0,0,0,0.4)"/>
  <circle cx="44" cy="11" r="1" fill="rgba(0,0,0,0.533333)"/>
  <circle cx="0" cy="12" r="1" fill="rgba(255,255,255,0)"/>
  <circle cx="1" cy="12" r="1" fill="rgba(255,255,255,0)"/>
  <circle cx="2" cy="12" r="1" fill="rgba(0,0,0,0.733333)"/>
  <circle cx="3" cy="12" r="1" fill="rgba(0,0,0,0.466667)"/>
  <circle cx="4" cy="12" r="1" fill="rgba(0,0,0,0.466667)"/>
  <circle cx="5" cy="12" r="1" fill="rgba(0,0,0,0.133333)"/>
  <circle cx="6" cy="12" r="1" fill="rgba(255,255,255,0)"/>
  <circle cx="7" cy="12" r="1" fill="rgba(0,0,0,0.733333)"/>
  <circle cx="8" cy="12" r="1" fill="rgba(0,0,0,0.533333)"/>
  <circle cx="9" cy="12" r="1" fill="rgba(0,0,0,0.266667)"/>
  <circle cx="10" cy="12" r="1" fill="rgba(0,0,0,0.4)"/>
  <circle cx="11" cy="12" r="1" fill="rgba(0,0,0,0.333333)"/>
  <circle cx="12" cy="12" r="1" fill="rgba(0,0,0,0.733333)"/>
  <circle cx="13" cy="12" r="1" fill="rgba(0,0,0,0.533333)"/>
  <circle cx="14" cy="12" r="1" fill="rgba(255,255,255,0)"/>
  <circle cx="15" cy="12" r="1" fill="rgba(0,0,0,0.266667)"/>
  <circle cx="16" cy="12" r="1" fill="rgba(0,0,0,0.666667)"/>
  <circle cx="17" cy="12" r="1" fill="black"/>
  <circle cx="18" cy="12" r="1" fill="rgba(0,0,0,0.533333)"/>
  <circle cx="19" cy="12" r="1" fill="rgba(0,0,0,0.133333)"/>
  <circle cx="20" cy="12" r="1" fill="rgba(0,0,0,0.4)"/>
  <circle cx="21" cy="12" r="1" fill="rgba(0,0,0,0.8)"/>
  <circle cx="22" cy="12" r="1" fill="rgba(0,0,0,0.8)"/>
  <circle cx="23" cy="12" r="1" fill="rgba(0,0,0,0.533333)"/>
  <circle cx="24" cy="12" r="1" fill="rgba(255,255,255,0)"/>
  <circle cx="25" cy="12" r="1" fill="rgba(255,255,255,0)"/>
  <circle cx="26" cy="12" r="1" fill="rgba(0,0,0,0.866667)"/>
  <circle cx="27" cy="12" r="1" fill="rgba(0,0,0,0.0666667)"/>
  <circle cx="28" cy="12" r="1" fill="rgba(255,255,255,0)"/>
  <circle cx="29" cy="12" r="1" fill="rgba(255,255,255,0)"/>
  <circle cx="30" cy="12" r="1" fill="rgba(0,0,0,0.333333)"/>
  <circle cx="31" cy="12" r="1" fill="rgba(0,0,0,0.733333)"/>
  <circle cx="32" cy="12" r="1" fill="rgba(0,0,0,0.333333)"/>
  <circle cx="33" cy="12" r="1" fill="rgba(0,0,0,0.4)"/>
  <circle cx="34" cy="12" r="1" fill="rgba(0,0,0,0.666667)"/>
  <circle cx="35" cy="12" r="1" fill="rgba(0,0,0,0.266667)"/>
  <circle cx="36" cy="12" r="1" fill="rgba(0,0,0,0.466667)"/>
  <circle cx="37" cy="12" r="1" fill="rgba(0,0,0,0.2)"/>
  <circle cx="38" cy="12" r="1" fill="rgba(255,255,255,0)"/>
  <circle cx="39" cy="12" r="1" fill="rgba(255,255,255,0)"/>
  <circle cx="40" cy="12" r="1" fill="rgba(255,255,255,0)"/>
  <circle cx="41" cy="12" r="1" fill="rgba(255,255,255,0)"/>
  <circle cx="42" cy="12" r="1" fill="rgba(255,255,255,0)"/>
  <circle cx="43" cy="12" r="1" fill="rgba(0,0,0,0.6)"/>
  <circle cx="44" cy="12" r="1" fill="rgba(0,0,0,0.333333)"/>
  <circle cx="0" cy="13" r="1" fill="rgba(255,255,255,0)"/>
  <circle cx="1" cy="13" r="1" fill="rgba(255,255,255,0)"/>
  <circle cx="2" cy="13" r="1" fill="rgba(255,255,255,0)"/>
  <circle cx="3" cy="13" r="1" fill="rgba(0,0,0,0.2)"/>
  <circle cx="4" cy="13" r="1" fill="rgba(0,0,0,0.0666667)"/>
  <circle cx="5" cy="13" r="1" fill="rgba(255,255,255,0)"/>
  <circle cx="6" cy="13" r="1" fill="rgba(255,255,255,0)"/>
  <circle cx="7" cy="13" r="1" fill="rgba(255,255,255,0)"/>
  <circle cx="8" cy="13" r="1" fill="rgba(0,0,0,0.0666667)"/>
  <circle cx="9" cy="13" r="1" fill="rgba(0,0,0,0.2)"/>
  <circle cx="10" cy="13" r="1" fill="rgba(255,255,255,0)"/>
  <circle cx="11" cy="13" r="1" fill="rgba(255,255,255,0)"/>
  <circle cx="12" cy="13" r="1" fill="rgba(255,255,255,0)"/>
  <circle cx="13" cy="13" r="1" fill="rgba(255,255,255,0)"/>
  <circle cx="14" cy="13" r="1" fill="rgba(255,255,255,0)"/>
  <circle cx="15" cy="13" r="1" fill="rgba(255,255,255,0)"/>
  <circle cx="16" cy="13" r="1" fill="rgba(255,255,255,0)"/>
  <circle cx="17" cy="13" r="1" fill="rgba(255,255,255,0)"/>
  <circle cx="18" cy="13" r="1" fill="rgba(255,255,255,0)"/>
  <circle cx="19" cy="13" r="1" fill="rgba(255,255,255,0)"/>
  <circle cx="20" cy="13" r="1" fill="rgba(255,255,255,0)"/>
  <circle cx="21" cy="13" r="1" fill="rgba(255,255,255,0)"/>
  <circle cx="22" cy="13" r="1" fill="rgba(255,255,255,0)"/>
  <circle cx="23" cy="13" r="1" fill="rgba(255,255,255,0)"/>
  <circle cx="24" cy="13" r="1" fill="rgba(255,255,255,0)"/>
  <circle cx="25" cy="13" r="1" fill="rgba(255,255,255,0)"/>
  <circle cx="26" cy="13" r="1" fill="rgba(0,0,0,0.533333)"/>
  <circle cx="27" cy="13" r="1" fill="rgba(0,0,0,0.4)"/>
  <circle cx="28" cy="13" r="1" fill="rgba(255,255,255,0)"/>
  <circle cx="29" cy="13" r="1" fill="rgba(255,255,255,0)"/>
  <circle cx="30" cy="13" r="1" fill="rgba(255,255,255,0)"/>
  <circle cx="31" cy="13" r="1" fill="rgba(0,0,0,0.133333)"/>
  <circle cx="32" cy="13" r="1" fill="rgba(0,0,0,0.133333)"/>
  <circle cx="33" cy="13" r="1" fill="rgba(255,255,255,0)"/>
  <circle cx="34" cy="13" r="1" fill="rgba(255,255,255,0)"/>
  <circle cx="35" cy="13" r="1" fill="rgba(0,0,0,0.266667)"/>
  <circle cx="36" cy="13" r="1" fill="rgba(255,255,255,0)"/>
  <circle cx="37" cy="13" r="1" fill="rgba(255,255,255,0)"/>
  <circle cx="38" cy="13" r="1" fill="rgba(255,255,255,0)"/>
  <circle cx="39" cy="13" r="1" fill="rgba(255,255,255,0)"/>
  <circle cx="40" cy="13" r="1" fill="rgba(255,255,255,0)"/>
  <circle cx="41" cy="13" r="1" fill="rgba(255,255,255,0)"/>
  <circle cx="42" cy="13" r="1" fill="rgba(255,255,255,0)"/>
  <circle cx="43" cy="13" r="1" fill="rgba(0,0,0,0.733333)"/>
  <circle cx="44" cy="13" r="1" fill="rgba(255,255,255,0)"/>
  <circle cx="0" cy="14" r="1" fill="rgba(255,255,255,0)"/>
  <circle cx="1" cy="14" r="1" fill="rgba(255,255,255,0)"/>
  <circle cx="2" cy="14" r="1" fill="rgba(255,255,255,0)"/>
  <circle cx="3" cy="14" r="1" fill="rgba(255,255,255,0)"/>
  <circle cx="4" cy="14" r="1" fill="rgba(255,255,255,0)"/>
  <circle cx="5" cy="14" r="1" fill="rgba(255,255,255,0)"/>
  <circle cx="6" cy="14" r="1" fill="rgba(255,255,255,0)"/>
  <circle cx="7" cy="14" r="1" fill="rgba(255,255,255,0)"/>
  <circle cx="8" cy="14" r="1" fill="rgba(255,255,255,0)"/>
  <circle cx="9" cy="14" r="1" fill="rgba(255,255,255,0)"/>
  <circle cx="10" cy="14" r="1" fill="rgba(255,255,255,0)"/>
  <circle cx="11" cy="14" r="1" fill="rgba(255,255,255,0)"/>
  <circle cx="12" cy="14" r="1" fill="rgba(255,255,255,0)"/>
  <circle cx="13" cy="14" r="1" fill="rgba(255,255,255,0)"/>
  <circle cx="14" cy="14" r="1" fill="rgba(255,255,255,0)"/>
  <circle cx="15" cy="14" r="1" fill="rgba(255,255,255,0)"/>
  <circle cx="16" cy="14" r="1" fill="rgba(255,255,255,0)"/>
  <circle cx="17" cy="14" r="1" fill="rgba(255,255,255,0)"/>
  <circle cx="18" cy="14" r="1" fill="rgba(255,255,255,0)"/>
  <circle cx="19" cy="14" r="1" fill="rgba(255,255,255,0)"/>
  <circle cx="20" cy="14" r="1" fill="rgba(255,255,255,0)"/>
  <circle cx="21" cy="14" r="1" fill="rgba(255,255,255,0)"/>
  <circle cx="22" cy="14" r="1" fill="rgba(255,255,255,0)"/>
  <circle cx="23" cy="14" r="1" fill="rgba(255,255,255,0)"/>
  <circle cx="24" cy="14" r="1" fill="rgba(255,255,255,0)"/>
  <circle cx="25" cy="14" r="1" fill="rgba(255,255,255,0)"/>
  <circle cx="26" cy="14" r="1" fill="rgba(0,0,0,0.0666667)"/>
  <circle cx="27" cy="14" r="1" fill="rgba(0,0,0,0.666667)"/>
  <circle cx="28" cy="14" r="1" fill="rgba(255,255,255,0)"/>
  <circle cx="29" cy="14" r="1" fill="rgba(255,255,255,0)"/>
  <circle cx="30" cy="14" r="1" fill="rgba(255,255,255,0)"/>
  <circle cx="31" cy="14" r="1" fill="rgba(255,255,255,0)"/>
  <circle cx="32" cy="14" r="1" fill="rgba(255,255,255,0)"/>
  <circle cx="33" cy="14" r="1" fill="rgba(255,255,255,0)"/>
  <circle cx="34" cy="14" r="1" fill="rgba(255,255,255,0)"/>
  <circle cx="35" cy="14" r="1" fill="rgba(255,255,255,0)"/>
  <circle cx="36" cy="14" r="1" fill="rgba(255,255,255,0)"/>
  <circle cx="37" cy="14" r="1" fill="rgba(255,255,255,0)"/>
  <circle cx="38" cy="14" r="1" fill="rgba(255,255,255,0)"/>
  <circle cx="39" cy="14" r="1" fill="rgba(255,255,255,0)"/>
  <circle cx="40" cy="14" r="1" fill="rgba(255,255,255,0)"/>
  <circle cx="41" cy="14" r="1" fill="rgba(255,255,255,0)"/>
  <circle cx="42" cy="14" r="1" fill="rgba(0,0,0,0.4)"/>
  <circle cx="43" cy="14" r="1" fill="rgba(0,0,0,0.466667)"/>
  <circle cx="44" cy="14" r="1" fill="rgba(255,255,255,0)"/>
  <circle cx="0" cy="15" r="1" fill="rgba(255,255,255,0)"/>
  <circle cx="1" cy="15" r="1" fill="rgba(255,255,255,0)"/>
  <circle cx="2" cy="15" r="1" fill="rgba(255,255,255,0)"/>
  <circle cx="3" cy="15" r="1" fill="rgba(255,255,255,0)"/>
  <circle cx="4" cy="15" r="1" fill="rgba(255,255,255,0)"/>
  <circle cx="5" cy="15" r="1" fill="rgba(255,255,255,0)"/>
  <circle cx="6" cy="15" r="1" fill="rgba(255,255,255,0)"/>
  <circle cx="7" cy="15" r="1" fill="rgba(255,255,255,0)"/>
  <circle cx="8" cy="15" r="1" fill="rgba(255,255,255,0)"/>
  <circle cx="9" cy="15" r="1" fill="rgba(255,255,255,0)"/>
  <circle cx="10" cy="15" r="1" fill="rgba(255,255,255,0)"/>
  <circle cx="11" cy="15" r="1" fill="rgba(255,255,255,0)"/>
  <circle cx="12" cy="15" r="1" fill="rgba(255,255,255,0)"/>
  <circle cx="13" cy="15" r="1" fill="rgba(255,255,255,0)"/>
  <circle cx="14" cy="15" r="1" fill="rgba(255,255,255,0)"/>
  <circle cx="15" cy="15" r="1" fill="rgba(255,255,255,0)"/>
  <circle cx="16" cy="15" r="1" fill="rgba(255,255,255,0)"/>
  <circle cx="17" cy="15" r="1" fill="rgba(255,255,255,0)"/>
  <circle cx="18" cy="15" r="1" fill="rgba(255,255,255,0)"/>
  <circle cx="19" cy="15" r="1" fill="rgba(255,255,255,0)"/>
  <circle cx="20" cy="15" r="1" fill="rgba(255,255,255,0)"/>
  <circle cx="21" cy="15" r="1" fill="rgba(255,255,255,0)"/>
  <circle cx="22" cy="15" r="1" fill="rgba(255,255,255,0)"/>
  <circle cx="23" cy="15" r="1" fill="rgba(255,255,255,0)"/>
  <circle cx="24" cy="15" r="1" fill="rgba(255,255,255,0)"/>
  <circle cx="25" cy="15" r="1" fill="rgba(255,255,255,0)"/>
  <circle cx="26" cy="15" r="1" fill="rgba(255,255,255,0)"/>
  <circle cx="27" cy="15" r="1" fill="rgba(0,0,0,0.4)"/>
  <circle cx="28" cy="15" r="1" fill="rgba(0,0,0,0.333333)"/>
  <circle cx="29" cy="15" r="1" fill="rgba(255,255,255,0)"/>
  <circle cx="30" cy="15" r="1" fill="rgba(255,255,255,0)"/>
  <circle cx="31" cy="15" r="1" fill="rgba(255,255,255,0)"/>
  <circle cx="32" cy="15" r="1" fill="rgba(255,255,255,0)"/>
  <circle cx="33" cy="15" r="1" fill="rgba(255,255,255,0)"/>
  <circle cx="34" cy="15" r="1" fill="rgba(255,255,255,0)"/>
  <circle cx="35" cy="15" r="1" fill="rgba(255,255,255,0)"/>
  <circle cx="36" cy="15" r="1" fill="rgba(255,255,255,0)"/>
  <circle cx="37" cy="15" r="1" fill="rgba(255,255,255,0)"/>
  <circle cx="38" cy="15" r="1" fill="rgba(255,255,255,0)"/>
  <circle cx="39" cy="15" r="1" fill="rgba(255,255,255,0)"/>
  <circle cx="40" cy="15" r="1" fill="rgba(255,255,255,0)"/>
  <circle cx="41" cy="15" r="1" fill="rgba(0,0,0,0.0666667)"/>
  <circle cx="42" cy="15" r="1" fill="rgba(0,0,0,0.666667)"/>
  <circle cx="43" cy="15" r="1" fill="rgba(255,255,255,0)"/>
  <circle cx="44" cy="15" r="1" fill="rgba(255,255,255,0)"/>
  <circle cx="0" cy="16" r="1" fill="rgba(255,255,255,0)"/>
  <circle cx="1" cy="16" r="1" fill="rgba(255,255,255,0)"/>
  <circle cx="2" cy="16" r="1" fill="rgba(255,255,255,0)"/>
  <circle cx="3" cy="16" r="1" fill="rgba(255,255,255,0)"/>
  <circle cx="4" cy="16" r="1" fill="rgba(255,255,255,0)"/>
  <circle cx="5" cy="16" r="1" fill="rgba(255,255,255,0)"/>
  <circle cx="6" cy="16" r="1" fill="rgba(255,255,255,0)"/>
  <circle cx="7" cy="16" r="1" fill="rgba(255,255,255,0)"/>
  <circle cx="8" cy="16" r="1" fill="rgba(255,255,255,0)"/>
  <circle cx="9" cy="16" r="1" fill="rgba(255,255,255,0)"/>
  <circle cx="10" cy="16" r="1" fill="rgba(255,255,255,0)"/>
  <circle cx="11" cy="16" r="1" fill="rgba(255,255,255,0)"/>
  <circle cx="12" cy="16" r="1" fill="rgba(255,255,255,0)"/>
  <circle cx="13" cy="16" r="1" fill="rgba(255,255,255,0)"/>
  <circle cx="14" cy="16" r="1" fill="rgba(255,255,255,0)"/>
  <circle cx="15" cy="16" r="1" fill="rgba(255,255,255,0)"/>
  <circle cx="16" cy="16" r="1" fill="rgba(255,255,255,0)"/>
  <circle cx="17" cy="16" r="1" fill="rgba(255,255,255,0)"/>
  <circle cx="18" cy="16" r="1" fill="rgba(255,255,255,0)"/>
  <circle cx="19" cy="16" r="1" fill="rgba(255,255,255,0)"/>
  <circle cx="20" cy="16" r="1" fill="rgba(255,255,255,0)"/>
  <circle cx="21" cy="16" r="1" fill="rgba(255,255,255,0)"/>
  <circle cx="22" cy="16" r="1" fill="rgba(255,255,255,0)"/>
  <circle cx="23" cy="16" r="1" fill="rgba(255,255,255,0)"/>
  <circle cx="24" cy="16" r="1" fill="rgba(255,255,255,0)"/>
  <circle cx="25" cy="16" r="1" fill="rgba(255,255,255,0)"/>
  <circle cx="26" cy="16" r="1" fill="rgba(255,255,255,0)"/>
  <circle cx="27" cy="16" r="1" fill="rgba(255,255,255,0)"/>
  <circle cx="28" cy="16" r="1" fill="rgba(0,0,0,0.466667)"/>
  <circle cx="29" cy="16" r="1" fill="rgba(0,0,0,0.2)"/>
  <circle cx="30" cy="16" r="1" fill="rgba(255,255,255,0)"/>
  <circle cx="31" cy="16" r="1" fill="rgba(255,255,255,0)"/>
  <circle cx="32" cy="16" r="1" fill="rgba(255,255,255,0)"/>
  <circle cx="33" cy="16" r="1" fill="rgba(255,255,255,0)"/>
  <circle cx="34" cy="16" r="1" fill="rgba(255,255,255,0)"/>
  <circle cx="35" cy="16" r="1" fill="rgba(255,255,255,0)"/>
  <circle cx="36" cy="16" r="1" fill="rgba(255,255,255,0)"/>
  <circle cx="37" cy="16" r="1" fill="rgba(255,255,255,0)"/>
  <circle cx="38" cy="16" r="1" fill="rgba(255,255,255,0)"/>
  <circle cx="39" cy="16" r="1" fill="rgba(255,255,255,0)"/>
  <circle cx="40" cy="16" r="1" fill="rgba(255,255,255,0)"/>
  <circle cx="41" cy="16" r="1" fill="rgba(0,0,0,0.466667)"/>
  <circle cx="42" cy="16" r="1" fill="rgba(0,0,0,0.0666667)"/>
  <circle cx="43" cy="16" r="1" fill="rgba(255,255,255,0)"/>
  <circle cx="44" cy="16" r="1" fill="rgba(255,255,255,0)"/>
  <circle cx="0" cy="17" r="1" fill="rgba(255,255,255,0)"/>
  <circle cx="1" cy="17" r="1" fill="rgba(255,255,255,0)"/>
  <circle cx="2" cy="17" r="1" fill="rgba(255,255,255,0)"/>
  <circle cx="3" cy="17" r="1" fill="rgba(255,255,255,0)"/>
  <circle cx="4" cy="17" r="1" fill="rgba(255,255,255,0)"/>
  <circle cx="5" cy="17" r="1" fill="rgba(255,255,255,0)"/>
  <circle cx="6" cy="17" r="1" fill="rgba(255,255,255,0)"/>
  <circle cx="7" cy="17" r="1" fill="rgba(255,255,255,0)"/>
  <circle cx="8" cy="17" r="1" fill="rgba(255,255,255,0)"/>
  <circle cx="9" cy="17" r="1" fill="rgba(255,255,255,0)"/>
  <circle cx="10" cy="17" r="1" fill="rgba(255,255,255,0)"/>
  <circle cx="11" cy="17" r="1" fill="rgba(255,255,255,0)"/>
  <circle cx="12" cy="17" r="1" fill="rgba(255,255,255,0)"/>
  <circle cx="13" cy="17" r="1" fill="rgba(255,255,255,0)"/>
  <circle cx="14" cy="17" r="1" fill="rgba(255,255,255,0)"/>
  <circle cx="15" cy="17" r="1" fill="rgba(255,255,255,0)"/>
  <circle cx="16" cy="17" r="1" fill="rgba(255,255,255,0)"/>
  <circle cx="17" cy="17" r="1" fill="rgba(255,255,255,0)"/>
  <circle cx="18" cy="17" r="1" fill="rgba(255,255,255,0)"/>
  <circle cx="19" cy="17" r="1" fill="rgba(255,255,255,0)"/>
  <circle cx="20" cy="17" r="1" fill="rgba(255,255,255,0)"/>
  <circle cx="21" cy="17" r="1" fill="rgba(255,255,255,0)"/>
  <circle cx="22" cy="17" r="1" fill="rgba(255,255,255,0)"/>
  <circle cx="23" cy="17" r="1" fill="rgba(255,255,255,0)"/>
  <circle cx="24" cy="17" r="1" fill="rgba(255,255,255,0)"/>
  <circle cx="25" cy="17" r="1" fill="rgba(255,255,255,0)"/>
  <circle cx="26" cy="17" r="1" fill="rgba(255,255,255,0)"/>
  <circle cx="27" cy="17" r="1" fill="rgba(255,255,255,0)"/>
  <circle cx="28" cy="17" r="1" fill="rgba(255,255,255,0)"/>
  <circle cx="29" cy="17" r="1" fill="rgba(0,0,0,0.0666667)"/>
  <circle cx="30" cy="17" r="1" fill="rgba(255,255,255,0)"/>
  <circle cx="31" cy="17" r="1" fill="rgba(255,255,255,0)"/>
  <circle cx="32" cy="17" r="1" fill="rgba(255,255,255,0)"/>
  <circle cx="33" cy="17" r="1" fill="rgba(255,255,255,0)"/>
  <circle cx="34" cy="17" r="1" fill="rgba(255,255,255,0)"/>
  <circle cx="35" cy="17" r="1" fill="rgba(255,255,255,0)"/>
  <circle cx="36" cy="17" r="1" fill="rgba(255,255,255,0)"/>
  <circle cx="37" cy="17" r="1" fill="rgba(255,255,255,0)"/>
  <circle cx="38" cy="17" r="1" fill="rgba(255,255,255,0)"/>
  <circle cx="39" cy="17" r="1" fill="rgba(255,255,255,0)"/>
  <circle cx="40" cy="17" r="1" fill="rgba(255,255,255,0)"/>
  <circle cx="41" cy="17" r="1" fill="rgba(0,0,0,0.0666667)"/>
  <circle cx="42" cy="17" r="1" fill="rgba(255,255,255,0)"/>
  <circle cx="43" cy="17" r="1" fill="rgba(255,255,255,0)"/>
  <circle cx="44" cy="17" r="1" fill="rgba(255,255,255,0)"/>
</svg>
